<svg enable-background="new 0 0 256 256" height="512" viewBox="0 0 256 256" width="512" xmlns="http://www.w3.org/2000/svg"><g id="Icons"><g><path d="m247.121 79.995h-238.242v-38.022c0-5.523 4.477-10 10-10h218.241c5.523 0 10 4.477 10 10v38.022z" fill="#fc5d3d"/><path d="m59.61 31.97v14.47c0 9.12-7.42 16.54-16.54 16.54s-16.54-7.42-16.54-16.54v-14.47z" fill="#b25035"/><path d="m116.23 31.97v14.47c0 9.12-7.42 16.54-16.54 16.54s-16.54-7.42-16.54-16.54v-14.47z" fill="#b25035"/><path d="m172.85 31.97v14.47c0 9.12-7.42 16.54-16.54 16.54s-16.54-7.42-16.54-16.54v-14.47z" fill="#b25035"/><path d="m229.47 31.97v14.47c0 9.12-7.42 16.54-16.54 16.54s-16.54-7.42-16.54-16.54v-14.47z" fill="#b25035"/><g fill="#efefef"><path d="m43.069 55.984c-5.27 0-9.543-4.272-9.543-9.543v-30.169c0-5.27 4.272-9.543 9.543-9.543 5.27 0 9.543 4.272 9.543 9.543v30.169c0 5.27-4.273 9.543-9.543 9.543z"/><path d="m99.69 55.984c-5.27 0-9.543-4.272-9.543-9.543v-30.169c0-5.27 4.272-9.543 9.543-9.543 5.27 0 9.543 4.272 9.543 9.543v30.169c-.001 5.27-4.273 9.543-9.543 9.543z"/><path d="m156.31 55.984c-5.27 0-9.543-4.272-9.543-9.543v-30.169c0-5.27 4.272-9.543 9.543-9.543 5.27 0 9.543 4.272 9.543 9.543v30.169c0 5.27-4.272 9.543-9.543 9.543z"/><path d="m212.931 55.984c-5.27 0-9.543-4.272-9.543-9.543v-30.169c0-5.27 4.272-9.543 9.543-9.543 5.27 0 9.543 4.272 9.543 9.543v30.169c0 5.27-4.272 9.543-9.543 9.543z"/><path d="m237.121 249.271h-218.242c-5.523 0-10-4.477-10-10v-159.276h238.241v159.276c.001 5.523-4.477 10-9.999 10z"/></g><path d="m57.93 139.426c-1.052-.319-2.19.084-2.804.997l-13.261 19.729-13.261-19.729c-.614-.913-1.752-1.317-2.804-.997-1.052.321-1.771 1.292-1.771 2.392v45.631c0 1.381 1.119 2.5 2.5 2.5s2.5-1.119 2.5-2.5v-37.431l10.761 16.009c.464.691 1.242 1.105 2.075 1.105s1.61-.415 2.075-1.105l10.761-16.009v37.431c0 1.381 1.119 2.5 2.5 2.5s2.5-1.119 2.5-2.5v-45.631c0-1.101-.719-2.071-1.771-2.392z"/><path d="m84.933 139.317c-9.834 0-17.835 8.001-17.835 17.835v14.96c0 9.834 8.001 17.835 17.835 17.835 9.835 0 17.836-8.001 17.836-17.835v-14.96c0-9.834-8.001-17.835-17.836-17.835zm12.836 32.796c0 7.078-5.758 12.835-12.836 12.835s-12.835-5.758-12.835-12.835v-14.96c0-7.078 5.758-12.835 12.835-12.835s12.836 5.758 12.836 12.835z"/><path d="m143.336 139.317c-1.381 0-2.5 1.119-2.5 2.5v37.431l-26.097-38.825c-.614-.913-1.751-1.317-2.804-.997-1.052.32-1.771 1.291-1.771 2.391v45.631c0 1.381 1.119 2.5 2.5 2.5s2.5-1.119 2.5-2.5v-37.431l26.096 38.825c.474.704 1.259 1.106 2.075 1.105.243 0 .488-.035.729-.109 1.053-.32 1.771-1.291 1.771-2.391v-45.631c.001-1.379-1.118-2.499-2.499-2.499z"/><path d="m186.402 139.317h-30.671c-1.381 0-2.5 1.119-2.5 2.5s1.119 2.5 2.5 2.5h12.836v43.131c0 1.381 1.119 2.5 2.5 2.5s2.5-1.119 2.5-2.5v-43.131h12.835c1.381 0 2.5-1.119 2.5-2.5s-1.119-2.5-2.5-2.5z"/><path d="m198.799 189.949c1.381 0 2.5-1.119 2.5-2.5v-20.316h25.671v20.316c0 1.381 1.119 2.5 2.5 2.5s2.5-1.119 2.5-2.5v-45.631c0-1.381-1.119-2.5-2.5-2.5s-2.5 1.119-2.5 2.5v20.315h-25.671v-20.315c0-1.381-1.119-2.5-2.5-2.5s-2.5 1.119-2.5 2.5v45.631c0 1.381 1.119 2.5 2.5 2.5z"/><g><path d="m237.12 72.499h-205.241c-1.381 0-2.5-1.119-2.5-2.5s1.119-2.5 2.5-2.5h205.241c1.381 0 2.5 1.119 2.5 2.5s-1.119 2.5-2.5 2.5zm-215.241 0h-3c-1.381 0-2.5-1.119-2.5-2.5s1.119-2.5 2.5-2.5h3c1.381 0 2.5 1.119 2.5 2.5s-1.119 2.5-2.5 2.5z" fill="#ffcbc3"/><path d="m237.121 241.775h-3c-1.381 0-2.5-1.119-2.5-2.5s1.119-2.5 2.5-2.5h3c1.381 0 2.5 1.119 2.5 2.5s-1.12 2.5-2.5 2.5zm-13 0c-18.687 0-177.099 0-205.241 0-1.381 0-2.5-1.119-2.5-2.5s1.119-2.5 2.5-2.5h205.241c1.381 0 2.5 1.119 2.5 2.5s-1.12 2.5-2.5 2.5z" fill="#fff"/><circle cx="187.12" cy="80.004" r="2.5"/><path d="m35.26 10.244c-1.25-.53-2.76.09-3.28 1.33-.54 1.26.06 2.74 1.32 3.27 1.151.52 2.712.035 3.28-1.32.554-1.3-.082-2.752-1.32-3.28z"/><path d="m18.879 251.775h218.241c6.893 0 12.5-5.607 12.5-12.5 0-33.148 0-175.349 0-197.301 0-6.893-5.607-12.5-12.5-12.5h-12.146v-13.198c0-6.641-5.402-12.043-12.043-12.043s-12.043 5.402-12.043 12.043v13.198h-32.535v-13.198c0-6.641-5.402-12.043-12.042-12.043-6.641 0-12.043 5.402-12.043 12.043v13.198h-32.535v-13.198c0-6.641-5.402-12.043-12.043-12.043-6.64 0-12.042 5.402-12.042 12.043v13.198h-32.536v-13.198c0-.013-.004-.024-.004-.037-.021-7.308-6.515-12.827-13.498-11.915-1.37.16-2.35 1.41-2.18 2.78.153 1.278 1.281 2.333 2.78 2.18 4.484-.46 7.889 2.996 7.9 6.99 0 .007.002.013.002.019v30.152c0 3.883-3.16 7.043-7.043 7.043-3.875 0-7.028-3.146-7.042-7.018 0-.009.003-.017.003-.026v-24c0-1.38-1.13-2.5-2.5-2.5-1.38 0-2.5 1.12-2.5 2.5v7.03h-12.15c-6.893 0-12.5 5.607-12.5 12.5v197.301c-.001 6.892 5.607 12.5 12.499 12.5zm194.052-242.542c3.883 0 7.043 3.16 7.043 7.043v30.169c0 3.883-3.16 7.043-7.043 7.043s-7.043-3.16-7.043-7.043c0-13.645 0-21.273 0-30.169 0-3.883 3.16-7.043 7.043-7.043zm-56.62 0c3.883 0 7.042 3.16 7.042 7.043v30.169c0 3.883-3.159 7.043-7.042 7.043s-7.043-3.16-7.043-7.043c0-13.646 0-21.273 0-30.169 0-3.883 3.159-7.043 7.043-7.043zm-56.622 0c3.883 0 7.043 3.16 7.043 7.043v30.169c0 3.883-3.16 7.043-7.043 7.043s-7.042-3.16-7.042-7.043c0-13.646 0-21.275 0-30.169 0-3.883 3.159-7.043 7.042-7.043zm-80.809 25.241h12.15v11.932c0 .013-.004.025-.004.039 0 6.641 5.402 12.043 12.043 12.043s12.043-5.402 12.043-12.043v-11.971h32.535v11.971c0 6.641 5.402 12.043 12.042 12.043 6.641 0 12.043-5.402 12.043-12.043v-11.971h32.535v11.971c0 6.641 5.402 12.043 12.043 12.043 6.64 0 12.042-5.402 12.042-12.043v-11.971h32.535v11.971c0 6.641 5.402 12.043 12.043 12.043s12.043-5.402 12.043-12.043v-11.971h12.146c4.136 0 7.5 3.364 7.5 7.5v35.53h-47.5c-1.38 0-2.5 1.12-2.5 2.5s1.12 2.5 2.5 2.5h47.501v156.771c0 4.136-3.364 7.5-7.5 7.5h-218.241c-4.136 0-7.5-3.364-7.5-7.5v-156.771h165.74c1.38 0 2.5-1.12 2.5-2.5s-1.12-2.5-2.5-2.5h-165.739v-35.53c0-4.136 3.364-7.5 7.5-7.5z"/></g></g></g></svg>