<svg id="Capa_1" enable-background="new 0 0 512 512" height="512" viewBox="0 0 512 512" width="512" xmlns="http://www.w3.org/2000/svg"><g><path d="m330.387 144.309 18.867-32.678h7.807l117.619 67.856 3.117 6.358-40.646 70.401h-8.712l-99.817-56.942-1.93-6.392v-40.646z" fill="#88ed88"/><path d="m357.061 111.631h-7.807l-18.867 32.678-3.695 7.957v40.646l1.93 6.392 31.958 18.231 45.29-77.746z" fill="#64d465"/><path d="m509.66 130.658-31.863 55.188-128.543-74.215 31.863-55.188c4.831-8.368 15.63-11.261 23.997-6.43l98.116 56.647c8.367 4.831 11.261 15.63 6.43 23.998z" fill="#bfb"/><path d="m405.114 50.013c-8.367-4.831-19.166-1.938-23.997 6.43l-31.863 55.188 54.641 31.547 40.919-70.244z" fill="#88ed88"/><path d="m330.387 194.606 106.764 61.64-40.646 70.402h-7.53l-62.283-35.977v-91.195z" fill="#64d465"/><path d="m362.976 213.422-32.589-18.816-3.695 4.87v76.235z" fill="#40c140"/><path d="m330.387 288.474 66.118 38.174-40.646 70.401h-8.063l-21.104-11.922v-94.456z" fill="#40c140"/><path d="m330.387 382.342 25.472 14.707-26.415 45.751-2.752-3.454v-54.219z" fill="#ddeafb"/><path d="m181.613 144.309-18.867-32.678h-7.807l-117.619 67.856-3.117 6.358 40.646 70.401h8.712l99.817-56.942 1.93-6.392v-40.646z" fill="#e490b7"/><path d="m83.315 152.951-45.995 26.536-3.117 6.358 40.646 70.401h8.712l44.131-25.175z" fill="#df75a5"/><path d="m2.34 130.658 31.863 55.188 128.543-74.215-31.863-55.188c-4.831-8.368-15.63-11.261-23.997-6.43l-98.116 56.647c-8.367 4.831-11.261 15.63-6.43 23.998z" fill="#f9c6da"/><path d="m45.103 85.684-36.333 20.976c-8.368 4.831-11.261 15.63-6.43 23.997l31.863 55.188 51.054-29.476z" fill="#e490b7"/><path d="m181.613 194.606-106.764 61.64 40.646 70.402h7.53l62.283-35.977v-91.195z" fill="#df75a5"/><path d="m123.025 326.648 44.393-25.643-42.008-73.95-50.561 29.191 40.646 70.402z" fill="#dd5790"/><path d="m181.613 288.474-66.118 38.174 40.646 70.401h8.063l21.104-11.922v-94.456z" fill="#dd5790"/><path d="m164.204 397.049 21.104-11.922v-52.629l-19.744-34.758-50.069 28.908 40.646 70.401z" fill="#da387d"/><path d="m181.613 382.342-25.472 14.707 26.415 45.751 2.752-3.454v-54.219z" fill="#bed8fb"/><path d="m181.613 108.261h148.429v88.009h-148.429z" fill="#fff0af" transform="matrix(-1 0 0 -1 511.655 304.532)"/><path d="m181.613 108.261h50.36v88.009h-50.36z" fill="#ffe07d"/><path d="m181.613 270.846h148.429v88.009h-148.429z" fill="#ffd064" transform="matrix(-1 0 0 -1 511.655 629.701)"/><path d="m181.613 270.846h50.36v88.009h-50.36z" fill="#ebb044"/><path d="m181.613 192.912h148.429v81.292h-148.429z" fill="#ffe07d" transform="matrix(-1 0 0 -1 511.655 467.116)"/><path d="m181.613 192.912h50.36v81.292h-50.36z" fill="#ffd064"/><path d="m330.042 47.895v63.725h-148.429v-63.725c0-9.662 7.905-17.567 17.567-17.567h113.295c9.662-.001 17.567 7.904 17.567 17.567z" fill="#fff6cf"/><path d="m249.541 30.327h-50.36c-9.662 0-17.567 7.905-17.567 17.567v63.725h50.36v-63.724c-.001-9.663 7.905-17.568 17.567-17.568z" fill="#fff0af"/><path d="m330.042 355.497v77.838c0 26.586-21.752 48.338-48.338 48.338h-51.752c-26.586 0-48.338-21.752-48.338-48.338v-77.838z" fill="#ecf4ff"/><path d="m231.973 433.334v-77.838h-50.36v77.838c0 26.586 21.752 48.338 48.338 48.338h50.36c-26.585.001-48.338-21.752-48.338-48.338z" fill="#ddeafb"/><circle cx="255.828" cy="424.548" fill="#477b9e" r="23.854"/><path d="m255.828 424.548c0-8.828 4.799-16.53 11.927-20.655-3.509-2.031-7.581-3.199-11.927-3.199-13.174 0-23.854 10.68-23.854 23.854s10.68 23.854 23.854 23.854c4.346 0 8.418-1.168 11.927-3.199-7.128-4.125-11.927-11.827-11.927-20.655z" fill="#365e7d"/></g></svg>