<svg enable-background="new 0 0 256 256" height="512" viewBox="0 0 256 256" width="512" xmlns="http://www.w3.org/2000/svg"><g id="Layer_1"><g><g><g><path d="m228.161 23.883v86.058c0 63.662-40.164 119.611-100.219 140.059-60.959-21.097-100.103-77.348-100.103-140.059v-86.058l100.161-17.883z" fill="#72c1e8"/></g><g><path d="m128 25.8-81.16 14.49c0 76.662-.134 73.341.38 80.16 3.812 47.805 34.093 90.535 80.76 109.29.01 0 .01-.01.02-.01 45.554-18.138 76.815-60.59 80.77-109.28.524-6.673.39-3.46.39-80.16z" fill="#efefef"/></g><g><path d="m175.674 105.534h-33.382v-33.383h-28.584v33.383h-33.382v28.584h33.382v33.382h28.584v-33.382h33.382z" fill="#fc5d3d"/></g></g><g><g><path d="m126.969 217.887c-5.846-2.647-11.498-5.77-16.8-9.28-1.151-.762-1.466-2.313-.704-3.465.761-1.15 2.312-1.467 3.465-.704 4.768 3.157 9.833 5.987 15.072 8.421 39.926-18.505 65.659-58.776 65.659-102.92v-59.259c0-1.381 1.119-2.5 2.5-2.5s2.5 1.119 2.5 2.5v59.26c0 46.482-27.332 88.855-69.632 107.949-.637.287-1.389.303-2.06-.002zm-24.291-15.363c-.552 0-1.108-.182-1.571-.556-1.528-1.236-3.046-2.528-4.512-3.84-1.029-.921-1.116-2.501-.195-3.53s2.501-1.117 3.53-.195c1.404 1.257 2.857 2.494 4.321 3.678 1.073.868 1.24 2.442.372 3.516-.494.61-1.216.927-1.945.927z" fill="#fff"/></g><g><path d="m184.75 211.23c-.97.991-.943 2.579.05 3.53.966.946 2.543.966 3.54-.05 0 0 0 0 .01-.01.95-.99.92-2.57-.069-3.52-.962-.93-2.601-.91-3.531.05z"/><path d="m228.6 21.42-100.6-17.88-100.6 17.88c-1.19.22-2.06 1.25-2.06 2.46v86.06c0 63.568 39.634 120.929 101.78 142.42.559.186 1.063.184 1.63.01 19.348-6.589 37.126-16.989 52.27-30.61 1.021-.92 1.101-2.5.181-3.53-.891-.98-2.54-1.07-3.53-.18-14.47 13.02-31.2 22.88-49.72 29.3-58.37-20.58-97.6-75.8-97.61-137.41v-83.96l97.659-17.44 97.66 17.44v83.96c0 34.47-12.19 67.86-34.311 94.01-.888 1.031-.781 2.617.29 3.52 1.01.86 2.67.72 3.521-.29 22.882-27.013 35.5-61.296 35.5-97.24v-86.06c0-1.21-.87-2.25-2.06-2.46z"/><path d="m57.84 155.8s-.01 0-.01-.01c-.49-1.25-1.96-1.9-3.23-1.41-1.277.495-1.933 1.947-1.42 3.24.523 1.371 2.066 1.9 3.23 1.42 1.29-.5 1.93-1.95 1.43-3.24z"/><path d="m127.991 232.24c19.94-4.112 78.41-42.875 83.289-111.88.494-6.274.38-4.333.38-80.07 0-1.21-.87-2.25-2.061-2.46l-81.599-14.528-81.6 14.528c-1.19.21-2.06 1.25-2.06 2.46 0 72.705-.15 74.639.39 80.35.74 9.28 2.46 18.48 5.13 27.34.38 1.28 1.82 2.06 3.11 1.67 1.32-.39 2.07-1.79 1.68-3.11-2.57-8.52-4.23-17.36-4.94-26.29-.493-7.484-.37-.477-.37-77.87l78.66-14.04 78.66 14.04c0 77.35.109 70.693-.38 77.87-3.881 47.79-33.881 88.71-78.3 106.79-28.198-11.581-52.108-33.011-66.24-62.24-.58-1.2-2.13-1.76-3.33-1.17-1.25.6-1.77 2.09-1.17 3.33 20.456 42.453 60.383 63.299 70.751 65.28z"/><g><path d="m175.67 103.03h-30.88v-30.88c0-1.382-1.108-2.5-2.5-2.5h-28.58c-1.424 0-2.5 1.162-2.5 2.5v7.65c0 1.38 1.12 2.5 2.5 2.5s2.5-1.12 2.5-2.5v-5.15h23.58v30.88c0 .66.27 1.31.729 1.77.471.47 1.11.73 1.771.73h30.88v23.59h-30.88c-1.418 0-2.5 1.154-2.5 2.5v30.88h-23.58v-30.88c0-1.425-1.158-2.5-2.5-2.5h-30.891v-23.59h30.891c.67 0 1.29-.26 1.77-.73.471-.47.73-1.1.73-1.77v-5.73c0-1.38-1.12-2.5-2.5-2.5s-2.5 1.12-2.5 2.5v3.23h-30.88c-1.341 0-2.5 1.087-2.5 2.5v28.59c0 1.414 1.146 2.5 2.5 2.5h30.88v30.88c0 1.339 1.078 2.5 2.5 2.5h28.58c1.382 0 2.5-1.108 2.5-2.5v-30.88h30.88c1.391 0 2.5-1.12 2.5-2.5v-28.59c0-1.35-1.096-2.5-2.5-2.5z"/><circle cx="113.71" cy="89.8" r="2.5"/></g></g></g></g></g></svg>