<?xml version="1.0" encoding="iso-8859-1"?>
<!-- Generator: Adobe Illustrator 19.0.0, SVG Export Plug-In . SVG Version: 6.00 Build 0)  -->
<svg version="1.1" id="Capa_1" xmlns="http://www.w3.org/2000/svg" xmlns:xlink="http://www.w3.org/1999/xlink" x="0px" y="0px"
	 viewBox="0 0 503.48 503.48" style="enable-background:new 0 0 503.48 503.48;" xml:space="preserve">
<g>
	<path style="fill:#4FBA6F;" d="M452.267,175.793v314.88c-0.014,4.707-3.826,8.52-8.533,8.533h-409.6
		c-4.707-0.014-8.52-3.826-8.533-8.533V12.807c0.014-4.707,3.826-8.52,8.533-8.533h409.6c4.707,0.014,8.52,3.826,8.533,8.533v28.245
		"/>
	<path style="fill:#E6E7E8;" d="M384,0.007c-1.132-0.001-2.217,0.449-3.018,1.249s-1.25,1.886-1.249,3.018V136.54h-281.6V4.273
		c0-2.356-1.91-4.267-4.267-4.267c-2.356,0-4.267,1.91-4.267,4.267v494.933c0,2.356,1.91,4.267,4.267,4.267
		c2.356,0,4.267-1.91,4.267-4.267v-115.2h281.6v115.2c0,2.356,1.91,4.267,4.267,4.267s4.267-1.91,4.267-4.267V4.273
		c0.001-1.132-0.449-2.217-1.249-3.018S385.132,0.006,384,0.007z M98.133,145.073h136.533v230.4H98.133V145.073z M243.2,375.473
		v-230.4h136.533v230.4H243.2z"/>
	<path style="fill:#F0C419;" d="M501.504,124.849c-0.365,1.673-0.821,3.326-1.365,4.949c-0.427,1.365-0.939,2.731-1.451,4.096
		c-0.512,1.365-1.109,2.731-1.707,4.011c-3.44,7.436-8.179,14.198-13.995,19.968c-5.755,5.834-12.52,10.576-19.968,13.995
		c-1.28,0.597-2.645,1.195-4.011,1.707c-1.36,0.601-2.756,1.114-4.181,1.536c-1.625,0.517-3.277,0.944-4.949,1.28
		c-30.473,7.359-62.122-6.45-77.453-33.795S361.824,81.045,384,58.887c22.174-22.182,56.399-26.901,83.749-11.548
		C495.099,62.692,508.894,94.367,501.504,124.849L501.504,124.849z"/>
	<path style="fill:#ECF0F1;" d="M500.139,129.799c-0.427,1.365-0.939,2.731-1.451,4.096c-0.512,1.365-1.109,2.731-1.707,4.011
		c-14.34-2.988-24.775-15.397-25.259-30.037c-0.734-18.397-15.48-33.143-33.877-33.877c-10.414-0.425-20.53,3.532-27.892,10.911
		c-7.362,7.378-11.297,17.503-10.849,27.916c0.71,18.393,15.482,33.128,33.877,33.792c14.619,0.538,27,10.949,30.037,25.259
		c-1.28,0.597-2.645,1.195-4.011,1.707c-1.36,0.601-2.756,1.114-4.181,1.536l-0.085-0.768c-2.023-10.717-11.123-18.654-22.016-19.2
		c-22.917-0.858-41.297-19.238-42.155-42.155c-0.476-12.746,4.378-25.114,13.397-34.133s21.387-13.874,34.133-13.397
		c22.891,0.917,41.237,19.264,42.155,42.155c0.451,10.948,8.423,20.125,19.2,22.101L500.139,129.799z"/>
	<path style="fill:#D1D4D1;" d="M469.333,268.807H8.533c-4.713,0-8.533-3.821-8.533-8.533c0-4.713,3.821-8.533,8.533-8.533h460.8
		c4.713,0,8.533,3.821,8.533,8.533C477.867,264.986,474.046,268.807,469.333,268.807z"/>
</g>
<g>
</g>
<g>
</g>
<g>
</g>
<g>
</g>
<g>
</g>
<g>
</g>
<g>
</g>
<g>
</g>
<g>
</g>
<g>
</g>
<g>
</g>
<g>
</g>
<g>
</g>
<g>
</g>
<g>
</g>
</svg>
