<svg enable-background="new 0 0 256 256" height="512" viewBox="0 0 256 256" width="512" xmlns="http://www.w3.org/2000/svg"><g id="Icons"><g><path d="m247.121 79.995h-238.242v-38.022c0-5.523 4.477-10 10-10h218.241c5.523 0 10 4.477 10 10v38.022z" fill="#fc5d3d"/><path d="m59.61 31.97v14.47c0 9.12-7.42 16.54-16.54 16.54s-16.54-7.42-16.54-16.54v-14.47z" fill="#b25035"/><path d="m116.23 31.97v14.47c0 9.12-7.42 16.54-16.54 16.54s-16.54-7.42-16.54-16.54v-14.47z" fill="#b25035"/><path d="m172.85 31.97v14.47c0 9.12-7.42 16.54-16.54 16.54s-16.54-7.42-16.54-16.54v-14.47z" fill="#b25035"/><path d="m229.47 31.97v14.47c0 9.12-7.42 16.54-16.54 16.54s-16.54-7.42-16.54-16.54v-14.47z" fill="#b25035"/><g fill="#efefef"><path d="m43.069 55.984c-5.27 0-9.543-4.272-9.543-9.543v-30.169c0-5.27 4.272-9.543 9.543-9.543 5.27 0 9.543 4.272 9.543 9.543v30.169c0 5.27-4.273 9.543-9.543 9.543z"/><path d="m99.69 55.984c-5.27 0-9.543-4.272-9.543-9.543v-30.169c0-5.27 4.272-9.543 9.543-9.543 5.27 0 9.543 4.272 9.543 9.543v30.169c-.001 5.27-4.273 9.543-9.543 9.543z"/><path d="m156.31 55.984c-5.27 0-9.543-4.272-9.543-9.543v-30.169c0-5.27 4.272-9.543 9.543-9.543 5.27 0 9.543 4.272 9.543 9.543v30.169c0 5.27-4.272 9.543-9.543 9.543z"/><path d="m212.931 55.984c-5.27 0-9.543-4.272-9.543-9.543v-30.169c0-5.27 4.272-9.543 9.543-9.543 5.27 0 9.543 4.272 9.543 9.543v30.169c0 5.27-4.272 9.543-9.543 9.543z"/><path d="m237.121 249.271h-218.242c-5.523 0-10-4.477-10-10v-159.276h238.241v159.276c.001 5.523-4.477 10-9.999 10z"/></g><g><path d="m119.692 140.064c1.381 0 2.5-1.119 2.5-2.5s-1.119-2.5-2.5-2.5h-33.177c-1.381 0-2.5 1.119-2.5 2.5v51.462c0 1.381 1.119 2.5 2.5 2.5h33.177c1.381 0 2.5-1.119 2.5-2.5s-1.119-2.5-2.5-2.5h-30.677v-20.731h30.677c1.381 0 2.5-1.119 2.5-2.5s-1.119-2.5-2.5-2.5h-30.677v-20.731z"/><path d="m170.26 140.064c1.381 0 2.5-1.119 2.5-2.5s-1.119-2.5-2.5-2.5h-33.177c-1.381 0-2.5 1.119-2.5 2.5v51.462c0 1.381 1.119 2.5 2.5 2.5h33.177c1.381 0 2.5-1.119 2.5-2.5s-1.119-2.5-2.5-2.5h-30.677v-20.731h30.677c1.381 0 2.5-1.119 2.5-2.5s-1.119-2.5-2.5-2.5h-30.677v-20.731z"/><path d="m187.651 135.064c-1.381 0-2.5 1.119-2.5 2.5v33.302.001 18.159c0 1.381 1.119 2.5 2.5 2.5s2.5-1.119 2.5-2.5v-17.132l12.108-12.152 16.365 30.47c.451.84 1.313 1.317 2.205 1.317.399 0 .805-.096 1.181-.298 1.216-.653 1.673-2.169 1.02-3.386l-17.082-31.805 16.652-16.713c.975-.978.972-2.561-.006-3.536s-2.562-.972-3.536.006l-28.906 29.011v-27.247c-.001-1.377-1.12-2.497-2.501-2.497z"/><path d="m70 135.066c-1.335-.054-2.542 1.019-2.598 2.398l-1.726 43.212-10.989-18.554c-.45-.76-1.268-1.226-2.151-1.226s-1.701.466-2.151 1.226l-10.989 18.554-1.726-43.212c-.055-1.38-1.231-2.472-2.598-2.398-1.38.055-2.454 1.218-2.398 2.598l2.064 51.667c.044 1.107.812 2.053 1.886 2.324 1.074.273 2.199-.196 2.763-1.15l13.149-22.202 13.149 22.202c.458.772 1.283 1.226 2.15 1.226.204 0 .409-.025.613-.076 1.074-.271 1.841-1.217 1.886-2.324l2.064-51.667c.055-1.379-1.019-2.542-2.398-2.598z"/></g><g><path d="m237.12 72.499h-205.241c-1.381 0-2.5-1.119-2.5-2.5s1.119-2.5 2.5-2.5h205.241c1.381 0 2.5 1.119 2.5 2.5s-1.119 2.5-2.5 2.5zm-215.241 0h-3c-1.381 0-2.5-1.119-2.5-2.5s1.119-2.5 2.5-2.5h3c1.381 0 2.5 1.119 2.5 2.5s-1.119 2.5-2.5 2.5z" fill="#ffcbc3"/><path d="m237.121 241.775h-3c-1.381 0-2.5-1.119-2.5-2.5s1.119-2.5 2.5-2.5h3c1.381 0 2.5 1.119 2.5 2.5s-1.12 2.5-2.5 2.5zm-13 0c-18.687 0-177.099 0-205.241 0-1.381 0-2.5-1.119-2.5-2.5s1.119-2.5 2.5-2.5h205.241c1.381 0 2.5 1.119 2.5 2.5s-1.12 2.5-2.5 2.5z" fill="#fff"/><circle cx="187.12" cy="80.004" r="2.5"/><path d="m35.26 10.244c-1.25-.53-2.76.09-3.28 1.33-.54 1.26.06 2.74 1.32 3.27 1.151.52 2.712.035 3.28-1.32.554-1.3-.082-2.752-1.32-3.28z"/><path d="m18.879 251.775h218.241c6.893 0 12.5-5.607 12.5-12.5 0-33.148 0-175.349 0-197.301 0-6.893-5.607-12.5-12.5-12.5h-12.146v-13.198c0-6.641-5.402-12.043-12.043-12.043s-12.043 5.402-12.043 12.043v13.198h-32.535v-13.198c0-6.641-5.402-12.043-12.042-12.043-6.641 0-12.043 5.402-12.043 12.043v13.198h-32.535v-13.198c0-6.641-5.402-12.043-12.043-12.043-6.64 0-12.042 5.402-12.042 12.043v13.198h-32.536v-13.198c0-.013-.004-.024-.004-.037-.021-7.308-6.515-12.827-13.498-11.915-1.37.16-2.35 1.41-2.18 2.78.153 1.278 1.281 2.333 2.78 2.18 4.484-.46 7.889 2.996 7.9 6.99 0 .007.002.013.002.019v30.152c0 3.883-3.16 7.043-7.043 7.043-3.875 0-7.028-3.146-7.042-7.018 0-.009.003-.017.003-.026v-24c0-1.38-1.13-2.5-2.5-2.5-1.38 0-2.5 1.12-2.5 2.5v7.03h-12.15c-6.893 0-12.5 5.607-12.5 12.5v197.301c-.001 6.892 5.607 12.5 12.499 12.5zm194.052-242.542c3.883 0 7.043 3.16 7.043 7.043v30.169c0 3.883-3.16 7.043-7.043 7.043s-7.043-3.16-7.043-7.043c0-13.645 0-21.273 0-30.169 0-3.883 3.16-7.043 7.043-7.043zm-56.62 0c3.883 0 7.042 3.16 7.042 7.043v30.169c0 3.883-3.159 7.043-7.042 7.043s-7.043-3.16-7.043-7.043c0-13.646 0-21.273 0-30.169 0-3.883 3.159-7.043 7.043-7.043zm-56.622 0c3.883 0 7.043 3.16 7.043 7.043v30.169c0 3.883-3.16 7.043-7.043 7.043s-7.042-3.16-7.042-7.043c0-13.646 0-21.275 0-30.169 0-3.883 3.159-7.043 7.042-7.043zm-80.809 25.241h12.15v11.932c0 .013-.004.025-.004.039 0 6.641 5.402 12.043 12.043 12.043s12.043-5.402 12.043-12.043v-11.971h32.535v11.971c0 6.641 5.402 12.043 12.042 12.043 6.641 0 12.043-5.402 12.043-12.043v-11.971h32.535v11.971c0 6.641 5.402 12.043 12.043 12.043 6.64 0 12.042-5.402 12.042-12.043v-11.971h32.535v11.971c0 6.641 5.402 12.043 12.043 12.043s12.043-5.402 12.043-12.043v-11.971h12.146c4.136 0 7.5 3.364 7.5 7.5v35.53h-47.5c-1.38 0-2.5 1.12-2.5 2.5s1.12 2.5 2.5 2.5h47.501v156.771c0 4.136-3.364 7.5-7.5 7.5h-218.241c-4.136 0-7.5-3.364-7.5-7.5v-156.771h165.74c1.38 0 2.5-1.12 2.5-2.5s-1.12-2.5-2.5-2.5h-165.739v-35.53c0-4.136 3.364-7.5 7.5-7.5z"/></g></g></g></svg>