<?xml version="1.0" encoding="iso-8859-1"?>
<!-- Generator: Adobe Illustrator 19.0.0, SVG Export Plug-In . SVG Version: 6.00 Build 0)  -->
<svg version="1.1" id="Capa_1" xmlns="http://www.w3.org/2000/svg" xmlns:xlink="http://www.w3.org/1999/xlink" x="0px" y="0px"
	 viewBox="0 0 389.122 389.122" style="enable-background:new 0 0 389.122 389.122;" xml:space="preserve">
<path style="fill:#FFFFFF;" d="M67.93,196.154v45.37l91.887,15.314c20.528,3.422,41.474,3.511,62.029,0.265l98.671-15.58v-102.4
	H67.93"/>
<path style="fill:#602F75;" d="M191.65,266.305c-11.017,0-22.026-0.91-32.957-2.734l-91.887-15.314
	c-3.29-0.546-5.704-3.396-5.704-6.733v-45.37c0-3.77,3.057-6.827,6.827-6.827c3.77,0,6.827,3.057,6.827,6.827v39.586l86.183,14.363
	c19.837,3.308,39.97,3.393,59.839,0.256l92.909-14.671v-89.74H67.927c-3.77,0-6.827-3.057-6.827-6.827
	c0-3.77,3.057-6.827,6.827-6.827h252.587c3.77,0,6.827,3.057,6.827,6.827v102.4c0,3.36-2.444,6.221-5.763,6.743l-98.669,15.58
	C212.536,265.487,202.09,266.305,191.65,266.305z"/>
<g>
	<path style="fill:#EA3457;" d="M286.384,141.735h-184.32v74.725l67.053,11.175c14.979,2.497,30.264,2.562,45.264,0.193
		l72.003-11.368V141.735z"/>
	<path style="fill:#EA3457;" d="M192.343,236.389c-8.137,0-16.273-0.674-24.351-2.021l-67.053-11.177
		c-3.29-0.546-5.704-3.396-5.704-6.733v-74.723c0-3.77,3.057-6.827,6.827-6.827h184.32c3.77,0,6.827,3.057,6.827,6.827v74.723
		c0,3.36-2.444,6.221-5.763,6.743l-72.003,11.37C207.78,235.781,200.064,236.389,192.343,236.389z M108.89,210.674l61.35,10.226
		c14.28,2.377,28.78,2.444,43.073,0.183l66.243-10.46V148.56H108.889v62.114H108.89z"/>
</g>
<polygon style="fill:#00E7FF;" points="190.474,79.329 6.825,132.297 190.474,185.267 382.292,132.297 "/>
<g>
	<path style="fill:#602F75;" d="M190.473,192.094c-0.637,0-1.273-0.09-1.893-0.266L4.934,138.858C2.014,138.015,0,135.339,0,132.297
		s2.014-5.717,4.934-6.56l183.646-52.97c1.217-0.343,2.5-0.35,3.71-0.02l191.821,52.97c2.959,0.817,5.011,3.511,5.011,6.579
		s-2.05,5.763-5.011,6.579L192.29,191.848C191.696,192.012,191.084,192.094,190.473,192.094z M31.461,132.297l159.053,45.877
		l166.134-45.877L190.513,86.42L31.461,132.297z"/>
	<path style="fill:#602F75;" d="M347.824,289.311c-3.77,0-6.827-3.057-6.827-6.827V145.951c0-3.77,3.057-6.827,6.827-6.827
		s6.827,3.057,6.827,6.827v136.533C354.65,286.254,351.594,289.311,347.824,289.311z"/>
</g>
<circle style="fill:#FFE600;" cx="347.819" cy="289.316" r="20.48"/>
<path style="fill:#602F75;" d="M347.824,316.617c-15.056,0-27.307-12.25-27.307-27.307s12.25-27.307,27.307-27.307
	c15.056,0,27.307,12.25,27.307,27.307S362.88,316.617,347.824,316.617z M347.824,275.657c-7.53,0-13.653,6.124-13.653,13.653
	s6.124,13.653,13.653,13.653s13.653-6.124,13.653-13.653S355.354,275.657,347.824,275.657z"/>
<g>
</g>
<g>
</g>
<g>
</g>
<g>
</g>
<g>
</g>
<g>
</g>
<g>
</g>
<g>
</g>
<g>
</g>
<g>
</g>
<g>
</g>
<g>
</g>
<g>
</g>
<g>
</g>
<g>
</g>
</svg>
