<svg id="Layer_1" enable-background="new 0 0 256 256" height="512" viewBox="0 0 256 256" width="512" xmlns="http://www.w3.org/2000/svg"><path d="m117.361 183.654v59.915c0 1.573 1.275 2.849 2.849 2.849h111.804c1.573 0 2.848-1.275 2.848-2.849v-59.915z" fill="#4671c6"/><path d="m222.865 134.621-5.018-11.504c-1.519-3.483-4.562-5.983-8.145-6.873-.403-4.146-2.897-7.845-6.677-9.718l-11.266-5.584c-1.5-.743-3.105-1.157-4.773-1.234-.184-.008-.368-.012-.55-.012-4.734 0-8.829 2.746-10.798 6.773-1.968-4.027-6.064-6.773-10.798-6.773-.183 0-.366.004-.551.012-1.667.077-3.273.491-4.773 1.234l-11.266 5.584c-3.779 1.873-6.273 5.572-6.677 9.718-3.583.89-6.626 3.39-8.145 6.873l-5.018 11.504c-.667 1.528-1.006 3.149-1.006 4.818 0 6.646 5.407 12.053 12.053 12.053h33.073 6.21 33.074c6.646 0 12.053-5.406 12.053-12.053.004-1.668-.335-3.289-1.002-4.818zm-83.405 7.443c-1.447 0-2.624-1.178-2.624-2.624 0-.362.074-.716.219-1.049l5.018-11.504c.156-.358.386-.668.667-.916.552 1.24 1.304 2.393 2.247 3.395l11.952 12.698zm16.454-23.231c-1.374-1.192-2.99-2.049-4.72-2.521.249-.543.671-.999 1.223-1.272l11.266-5.584c.326-.16.674-.251 1.034-.268l.12-.003c1.405 0 2.555 1.117 2.619 2.543l.796 17.814zm27.908-7.105c.064-1.426 1.214-2.543 2.619-2.543l.119.003c.361.017.709.107 1.034.268l11.266 5.584c.552.273.974.729 1.223 1.272-1.729.473-3.345 1.329-4.72 2.521l-12.337 10.709zm27.996 30.336h-17.478l11.952-12.698c.943-1.002 1.695-2.154 2.247-3.395.281.248.511.558.667.916l5.017 11.503c.145.334.219.688.219 1.05 0 1.446-1.177 2.624-2.624 2.624z" fill="#f9a7a7"/><path d="m161.682 170.384h27.913v76.033h-27.913z" fill="#e0ebfc"/><path d="m235.898 183.654h-120.518c-1.573 0-2.849-1.275-2.849-2.848v-26.464c0-1.573 1.275-2.849 2.849-2.849h120.519c1.573 0 2.848 1.275 2.848 2.849v26.464c0 1.572-1.276 2.848-2.849 2.848z" fill="#4671c6"/><path d="m161.682 151.493h27.913v32.161h-27.913z" fill="#e0ebfc"/><circle cx="65.564" cy="40.142" fill="#eaa97d" r="30.559"/><circle cx="65.564" cy="40.142" fill="#ffea92" r="21.82"/><path d="m65.563 72.701c-17.953 0-32.559-14.606-32.559-32.56s14.606-32.558 32.559-32.558 32.559 14.605 32.559 32.559-14.605 32.559-32.559 32.559zm0-61.118c-15.748 0-28.559 12.812-28.559 28.559 0 15.748 12.812 28.56 28.559 28.56s28.559-12.812 28.559-28.56c.001-15.747-12.811-28.559-28.559-28.559z" fill="#3762cc"/><path d="m67.3 22.309 4.074 8.256c.282.571.827.967 1.458 1.059l9.111 1.324c1.588.231 2.222 2.182 1.073 3.302l-6.592 6.426c-.456.445-.664 1.086-.557 1.714l1.556 9.074c.271 1.581-1.389 2.787-2.809 2.041l-8.149-4.284c-.564-.296-1.238-.296-1.802 0l-8.149 4.284c-1.42.747-3.08-.459-2.809-2.041l1.556-9.074c.108-.628-.1-1.269-.557-1.714l-6.592-6.426c-1.149-1.12-.515-3.071 1.073-3.302l9.111-1.324c.631-.092 1.176-.488 1.458-1.059l4.074-8.256c.71-1.439 2.761-1.439 3.472 0z" fill="#eaa97d"/><path d="m192.791 72.478c-.872-1.695-2.641-2.784-4.538-2.714l-8.842.161c-4.31-16.412-15.889-30.381-32.095-37.431-13.813-6.009-29.158-6.269-43.209-.737-2.569 1.012-3.832 3.915-2.82 6.484 1.012 2.568 3.913 3.83 6.484 2.82 11.566-4.556 24.194-4.342 35.556.603 12.554 5.46 21.736 15.968 25.73 28.448l-8.255.15c-1.963.035-3.723 1.217-4.5 3.019-.777 1.803-.428 3.894.893 5.346l14.9 16.378c.95 1.044 2.294 1.635 3.698 1.635.082 0 .165-.002.247-.006 1.493-.074 2.874-.812 3.766-2.011l12.552-16.877c1.135-1.529 1.304-3.573.433-5.268z" fill="#6bdddd"/><circle cx="41.408" cy="74.561" fill="#eaa97d" r="24.155"/><circle cx="41.408" cy="74.561" fill="#ffea92" r="17.248"/><path d="m41.408 100.716c-14.422 0-26.155-11.733-26.155-26.155s11.733-26.155 26.155-26.155 26.155 11.733 26.155 26.155-11.733 26.155-26.155 26.155zm0-48.311c-12.216 0-22.155 9.938-22.155 22.155s9.938 22.155 22.155 22.155 22.155-9.938 22.155-22.155-9.938-22.155-22.155-22.155z" fill="#3762cc"/><path d="m42.781 60.465 3.221 6.526c.223.452.654.765 1.152.837l7.201 1.046c1.255.182 1.756 1.725.848 2.61l-5.211 5.079c-.361.352-.525.858-.44 1.354l1.23 7.172c.214 1.25-1.098 2.203-2.22 1.613l-6.441-3.386c-.446-.234-.978-.234-1.424 0l-6.441 3.386c-1.123.59-2.435-.363-2.22-1.613l1.23-7.172c.085-.496-.079-1.003-.44-1.354l-5.211-5.079c-.908-.885-.407-2.428.848-2.61l7.201-1.046c.498-.072.929-.385 1.152-.837l3.221-6.526c.56-1.138 2.182-1.138 2.744 0z" fill="#eaa97d"/><g fill="#3762cc"><path d="m232.013 248.417h-111.804c-2.673 0-4.848-2.175-4.848-4.849v-59.915c0-1.104.896-2 2-2h117.5c1.104 0 2 .896 2 2v59.915c.001 2.674-2.174 4.849-4.848 4.849zm-112.652-62.764v57.915c0 .468.38.849.848.849h111.804c.468 0 .849-.381.849-.849v-57.915z"/><path d="m235.898 185.653h-120.519c-2.673 0-4.848-2.175-4.848-4.849v-26.463c0-2.674 2.175-4.849 4.848-4.849h120.519c2.673 0 4.848 2.175 4.848 4.849v26.463c.001 2.675-2.174 4.849-4.848 4.849zm-120.519-32.16c-.468 0-.848.381-.848.849v26.463c0 .468.38.849.848.849h120.519c.468 0 .848-.381.848-.849v-26.463c0-.468-.38-.849-.848-.849z"/><path d="m168.252 131.542c-.473 0-.94-.167-1.312-.489l-12.337-10.709c-1.13-.981-2.492-1.708-3.936-2.103-.566-.155-1.036-.551-1.284-1.083-.249-.531-.251-1.146-.007-1.679.445-.973 1.21-1.766 2.155-2.233l11.264-5.583c.581-.286 1.195-.444 1.83-.474l.164-.004h.001c2.526 0 4.553 1.956 4.665 4.453l.796 17.814c.036.798-.408 1.542-1.127 1.89-.279.135-.577.2-.872.2zm-13.024-15.663c.707.422 1.377.905 1.997 1.443l8.821 7.656-.588-13.162c-.016-.354-.289-.632-.621-.632l-.071.002c-.04.003-.12.023-.2.063z"/><path d="m183.026 131.542c-.295 0-.593-.065-.87-.199-.72-.348-1.163-1.092-1.127-1.89l.796-17.814c.111-2.498 2.139-4.454 4.617-4.454l.168.004c.679.03 1.293.188 1.869.473l11.271 5.586c.942.467 1.707 1.259 2.153 2.23.245.534.243 1.148-.006 1.681s-.718.928-1.285 1.083c-1.444.395-2.806 1.121-3.937 2.103l-12.337 10.709c-.372.321-.839.488-1.312.488zm3.366-20.358c-.283.001-.556.278-.571.633l-.588 13.162 8.82-7.656c.621-.538 1.291-1.021 1.998-1.443l-9.344-4.632c-.075-.037-.154-.058-.238-.062z"/><path d="m156.938 144.063h-17.478c-2.55 0-4.624-2.074-4.624-4.624 0-.639.129-1.261.385-1.848l5.018-11.505c.27-.62.665-1.164 1.175-1.615.478-.422 1.128-.594 1.749-.455.623.135 1.143.559 1.402 1.141.473 1.063 1.104 2.018 1.876 2.837l11.952 12.698c.547.581.696 1.432.379 2.164s-1.037 1.207-1.834 1.207zm-14.046-14.053-4.004 9.181c-.035.08-.052.161-.052.249 0 .344.28.624.624.624h12.849l-8.78-9.327c-.221-.236-.433-.477-.637-.727z"/><path d="m211.818 144.063h-17.478c-.798 0-1.52-.475-1.836-1.207s-.167-1.583.379-2.164l11.952-12.698c.771-.819 1.403-1.774 1.876-2.837.259-.582.78-1.006 1.402-1.141.621-.138 1.271.033 1.749.455.509.45.905.993 1.175 1.615l5.018 11.503c.256.591.386 1.212.386 1.85.001 2.55-2.073 4.624-4.623 4.624zm-12.849-4h12.849c.344 0 .624-.28.624-.624 0-.088-.018-.171-.053-.253l-4.003-9.177c-.204.249-.416.491-.637.727z"/><path d="m211.818 153.492h-72.358c-7.749 0-14.053-6.304-14.053-14.053 0-1.945.395-3.836 1.172-5.618l5.018-11.504c1.549-3.552 4.552-6.323 8.183-7.618.836-4.326 3.599-7.99 7.583-9.965l11.266-5.584c1.747-.865 3.621-1.35 5.569-1.44.221-.009.433-.014.643-.014 4.262 0 8.171 1.893 10.797 5.093 2.756-3.357 6.904-5.27 11.433-5.079 1.956.091 3.83.575 5.576 1.44l11.266 5.584c3.985 1.975 6.748 5.639 7.583 9.965 3.631 1.295 6.634 4.066 8.183 7.618l5.018 11.504c.778 1.782 1.172 3.673 1.172 5.618.002 7.749-6.303 14.053-14.051 14.053zm-46.977-51.796c-.155 0-.31.003-.466.01-1.384.064-2.722.41-3.97 1.028l-11.265 5.584c-3.147 1.56-5.231 4.596-5.574 8.119-.082.844-.687 1.544-1.509 1.748-3.015.748-5.555 2.891-6.794 5.731l-5.018 11.504c-.556 1.275-.838 2.627-.838 4.019 0 5.543 4.51 10.053 10.053 10.053h72.358c5.543 0 10.053-4.51 10.053-10.053 0-1.392-.282-2.743-.838-4.019l-5.018-11.504c-1.239-2.841-3.779-4.983-6.794-5.731-.822-.204-1.427-.904-1.509-1.748-.343-3.523-2.427-6.56-5.574-8.119l-11.266-5.584c-1.247-.618-2.585-.964-3.977-1.028-.148-.007-.304-.01-.458-.01-3.848 0-7.297 2.166-9.001 5.651-.335.687-1.033 1.122-1.797 1.122-.764 0-1.461-.436-1.797-1.122-1.703-3.486-5.152-5.651-9.001-5.651zm46.977 42.367h-17.478c-.798 0-1.52-.475-1.836-1.207s-.167-1.583.379-2.164l11.952-12.698c.771-.819 1.403-1.774 1.876-2.837.259-.582.78-1.006 1.402-1.141.621-.138 1.271.033 1.749.455.51.451.906.995 1.177 1.618l5.016 11.5c.256.591.386 1.212.386 1.85.001 2.55-2.073 4.624-4.623 4.624zm-12.849-4h12.849c.344 0 .624-.28.624-.624 0-.088-.018-.171-.053-.253l-4.003-9.177c-.204.249-.416.491-.637.727zm-42.031 4h-17.478c-2.55 0-4.624-2.074-4.624-4.624 0-.639.129-1.261.385-1.848l5.018-11.505c.27-.62.665-1.164 1.175-1.615.478-.422 1.128-.594 1.749-.455.623.135 1.143.559 1.402 1.141.473 1.063 1.104 2.018 1.876 2.837l11.952 12.698c.547.581.696 1.432.379 2.164s-1.037 1.207-1.834 1.207zm-14.046-14.053-4.004 9.181c-.035.08-.052.161-.052.249 0 .344.28.624.624.624h12.849l-8.78-9.327c-.221-.236-.433-.477-.637-.727zm40.134 1.532c-.295 0-.593-.065-.87-.199-.72-.348-1.163-1.092-1.127-1.89l.796-17.814c.111-2.498 2.139-4.454 4.617-4.454l.168.004c.679.03 1.293.188 1.869.473l11.271 5.586c.942.467 1.707 1.259 2.153 2.23.245.534.243 1.148-.006 1.681s-.718.928-1.285 1.083c-1.444.395-2.806 1.121-3.937 2.103l-12.337 10.709c-.372.321-.839.488-1.312.488zm3.366-20.358c-.283.001-.556.278-.571.633l-.588 13.162 8.82-7.656c.621-.538 1.291-1.021 1.998-1.443l-9.344-4.632c-.075-.037-.154-.058-.238-.062zm-2.57.544h.01zm-15.57 19.814c-.473 0-.94-.167-1.312-.489l-12.337-10.709c-1.131-.981-2.492-1.708-3.936-2.103-.566-.155-1.036-.551-1.284-1.083-.249-.531-.251-1.146-.007-1.679.445-.973 1.21-1.766 2.155-2.233l11.264-5.583c.581-.286 1.195-.444 1.83-.474l.164-.004h.001c2.526 0 4.553 1.956 4.664 4.453l.796 17.814c.036.798-.408 1.542-1.127 1.89-.278.135-.576.2-.871.2zm-13.024-15.663c.707.422 1.377.905 1.997 1.443l8.82 7.656-.588-13.162c-.016-.354-.289-.632-.621-.632l-.071.002c-.04.003-.12.023-.2.063z"/></g></svg>